<svg width="152" height="32" viewBox="0 0 152 32" fill="none" xmlns="http://www.w3.org/2000/svg">
<mask id="mask0_17_429" style="mask-type:luminance" maskUnits="userSpaceOnUse" x="2" y="0" width="145" height="32">
<path d="M146.292 0.418579H2.79248V31.5815H146.292V0.418579Z" fill="white"/>
</mask>
<g mask="url(#mask0_17_429)">
</g>
<g clip-path="url(#clip0_17_429)">
<path d="M49.1901 8.46405L49.8889 7.65604C50.1846 7.97347 50.8726 8.62565 52.0176 8.62565C53.055 8.62565 53.4098 8.17548 53.4098 7.71376C53.4098 7.02118 52.7325 6.89998 52.195 6.74415C51.5768 6.56523 51.1145 6.49597 50.5501 6.23626C49.7223 5.86111 49.4804 5.22047 49.4804 4.68373C49.4804 3.4544 50.7114 2.79645 51.8993 2.79645C52.8615 2.79645 53.8022 3.17159 54.372 3.70834L53.8345 4.57407C53.3883 4.21046 52.754 3.86417 51.9047 3.86417C51.2059 3.86417 50.5716 4.08349 50.5716 4.66064C50.5716 5.13967 50.9586 5.34168 51.9692 5.58985C52.926 5.82071 54.5064 6.15546 54.5064 7.73684C54.5064 9.16817 53.1572 9.73378 52.0606 9.73378C50.4265 9.73378 49.4804 8.81034 49.1955 8.46982L49.1901 8.46405Z" fill="#8E8E93"/>
<path d="M62.1987 2.91187V9.61834H61.1182V4.93189L59.1078 7.89843L57.1028 4.92612V9.61834H56.0331V2.91187H57.0222L59.0917 6.04001L61.1666 2.91187H62.1933H62.1987Z" fill="#8E8E93"/>
<path d="M49.3353 17.7677C49.3353 15.8573 50.6952 14.2932 52.6358 14.2932C53.6463 14.2932 54.4419 14.651 55.1031 15.3379L54.3882 16.1459C53.9205 15.6668 53.4045 15.4244 52.6465 15.4244C51.4962 15.4244 50.4641 16.2382 50.4641 17.785C50.4641 19.3317 51.5123 20.0936 52.6465 20.0936C53.6302 20.0936 54.2161 19.603 54.5655 19.1528L55.3235 19.9204C54.6999 20.7342 53.813 21.2363 52.6358 21.2363C50.6952 21.2363 49.3353 19.6722 49.3353 17.7619V17.7677Z" fill="#8E8E93"/>
<path d="M56.248 18.5699V14.4144H57.3393V18.5699C57.3393 19.5857 58.1724 20.1167 58.9841 20.1167C59.7958 20.1167 60.6183 19.5915 60.6183 18.5699V14.4144H61.7148V18.5699C61.7148 20.1975 60.5806 21.2363 58.9788 21.2363C57.3769 21.2363 56.248 20.1975 56.248 18.5699Z" fill="#8E8E93"/>
<path d="M63.0211 14.4202H64.1123V19.9955H67.5795V21.1267H63.0211V14.4202Z" fill="#8E8E93"/>
<path d="M69.0093 15.511H67.0419V14.4202H72.0733V15.511H70.1059V21.1209H69.0093V15.511Z" fill="#8E8E93"/>
<path d="M73.0086 18.5699V14.4144H74.0998V18.5699C74.0998 19.5857 74.9276 20.1167 75.7447 20.1167C76.5618 20.1167 77.3788 19.5915 77.3788 18.5699V14.4144H78.4754V18.5699C78.4754 20.1975 77.3412 21.2363 75.7393 21.2363C74.1375 21.2363 73.0032 20.1975 73.0032 18.5699H73.0086Z" fill="#8E8E93"/>
<path d="M79.8784 14.4202H83.066C84.426 14.4202 84.8507 15.5341 84.8507 16.4345C84.8507 17.1905 84.5389 18.0851 83.6358 18.3622L85.1839 21.1267H83.9691L82.5124 18.4603H80.9643V21.1267H79.873V14.4202H79.8784ZM82.9585 17.3637C83.4961 17.3637 83.7648 16.9885 83.7648 16.4345C83.7648 15.8804 83.5068 15.5226 83.0069 15.5226H80.9696V17.3637H82.9639H82.9585Z" fill="#8E8E93"/>
<path d="M86.2698 14.4202H90.9786V15.5053H87.361V17.0405H90.0433V18.1371H87.361V20.0359H91.027V21.1267H86.2751V14.4202H86.2698Z" fill="#8E8E93"/>
<path d="M93.9243 19.3202C93.9243 18.7835 94.1931 17.9754 95.2467 17.4098C95.2467 17.4098 94.6823 16.7403 94.6823 15.9497C94.6823 15.3667 95.0747 14.3105 96.3701 14.3105C97.0152 14.3105 97.886 14.7261 97.886 15.7996C97.886 16.8731 97.1603 17.3637 96.6819 17.6407C97.2625 18.2756 97.9075 18.8816 97.9075 18.8816C98.0526 18.6103 98.1333 18.3448 98.1655 18.0851H99.0686C99.0686 18.189 99.031 18.8931 98.6224 19.5453L99.5846 20.5149L98.9933 21.2363L98.0903 20.3244C97.8161 20.6707 97.1603 21.2363 96.1014 21.2363C94.9026 21.2363 93.9189 20.5668 93.9189 19.326L93.9243 19.3202ZM97.3538 19.5915L95.9132 18.1601C95.3166 18.4487 94.994 18.8412 95.037 19.3664C95.0693 19.8166 95.4402 20.2206 96.0906 20.2206C96.6604 20.2206 97.0636 19.9493 97.3485 19.5857L97.3538 19.5915ZM96.8808 15.8227C96.8808 15.4879 96.6497 15.2686 96.3379 15.2686C96.0261 15.2686 95.7573 15.4879 95.6767 15.8862C95.6122 16.2325 95.709 16.6422 96.0261 17.0001C96.4938 16.7634 96.8862 16.4345 96.8862 15.8284L96.8808 15.8227Z" fill="#8E8E93"/>
<path d="M102.063 17.7677C102.063 15.8573 103.423 14.2932 105.358 14.2932C106.368 14.2932 107.164 14.651 107.825 15.3379L107.11 16.1459C106.648 15.6668 106.127 15.4244 105.369 15.4244C104.218 15.4244 103.186 16.2382 103.186 17.785C103.186 19.3317 104.234 20.0936 105.369 20.0936C106.352 20.0936 106.938 19.603 107.288 19.1528L108.046 19.9204C107.422 20.7342 106.535 21.2363 105.358 21.2363C103.417 21.2363 102.063 19.6722 102.063 17.7619V17.7677Z" fill="#8E8E93"/>
<path d="M108.314 17.7676C108.314 15.8573 109.599 14.2932 111.55 14.2932C113.502 14.2932 114.786 15.8573 114.786 17.7676C114.786 19.678 113.491 21.2421 111.55 21.2421C109.61 21.2421 108.314 19.6896 108.314 17.7676ZM113.657 17.7676C113.657 16.3998 112.792 15.436 111.55 15.436C110.309 15.436 109.443 16.394 109.443 17.7676C109.443 19.1413 110.33 20.1109 111.55 20.1109C112.771 20.1109 113.657 19.124 113.657 17.7676Z" fill="#8E8E93"/>
<path d="M115.808 14.4202H116.802L120.167 19.1182L120.178 14.4202H121.248V21.1267H120.264L116.877 16.4056V21.1267H115.808V14.4202Z" fill="#8E8E93"/>
<path d="M124.166 15.511H122.199V14.4202H127.23V15.511H125.263V21.1209H124.166V15.511Z" fill="#8E8E93"/>
<path d="M128.284 14.4202H132.993V15.5053H129.375V17.0405H132.058V18.1371H129.375V20.0359H133.041V21.1267H128.289V14.4202H128.284Z" fill="#8E8E93"/>
<path d="M134.251 14.4202H135.24L138.61 19.1182L138.621 14.4202H139.691V21.1267H138.707L135.32 16.4056V21.1267H134.251V14.4202Z" fill="#8E8E93"/>
<path d="M142.658 15.511H140.69V14.4202H145.722V15.511H143.754V21.1209H142.658V15.511Z" fill="#8E8E93"/>
<path d="M146.077 19.9724L146.775 19.1644C147.071 19.4818 147.759 20.134 148.904 20.134C149.942 20.134 150.296 19.6838 150.296 19.2221C150.296 18.5295 149.619 18.4083 149.081 18.2525C148.463 18.0736 148.001 18.0043 147.437 17.7446C146.603 17.3695 146.362 16.7288 146.362 16.1921C146.362 14.9628 147.598 14.3048 148.786 14.3048C149.748 14.3048 150.689 14.68 151.259 15.2167L150.721 16.0824C150.275 15.7188 149.641 15.3725 148.791 15.3725C148.092 15.3725 147.458 15.5919 147.458 16.169C147.458 16.648 147.84 16.85 148.85 17.0982C149.807 17.3291 151.388 17.6638 151.388 19.2452C151.388 20.6765 150.038 21.2421 148.942 21.2421C147.308 21.2421 146.356 20.3187 146.071 19.9782L146.077 19.9724Z" fill="#8E8E93"/>
<path d="M11.9654 31.3363C10.6861 31.3363 9.40135 30.8111 8.4284 29.7665L1.38661 22.2058C0.881324 21.6633 0.607178 20.9419 0.607178 20.1743C0.607178 19.4067 0.892075 18.691 1.39736 18.1485C2.43482 17.0461 4.11732 17.0519 5.15478 18.16L13.4759 27.0943C14.0887 27.7522 14.852 28.1909 15.6852 28.3698C16.0884 27.6483 16.3088 26.823 16.3088 25.9631C16.3088 24.7164 15.8572 23.5448 15.0348 22.6676L5.1709 12.0826C3.21963 9.98759 3.21963 6.57663 5.1709 4.48158C6.14923 3.43117 7.42858 2.91174 8.7133 2.91174H8.76706C8.96595 2.57699 9.19709 2.26533 9.46586 1.97676C11.4171 -0.106753 14.5833 -0.100981 16.5292 1.9883L23.6247 9.60667L31.0589 1.63047C32.0372 0.580054 33.4402 0.279937 34.7196 0.851315C35.7033 1.28995 36.4021 2.1499 36.6708 3.20031C37.6169 2.65202 38.7404 2.57699 39.7886 3.04448C41.1808 3.66203 42.0462 5.05296 42.0462 6.66898V19.2047C42.0462 20.9534 40.7185 22.379 39.0898 22.379C37.461 22.379 36.1333 20.9534 36.1333 19.2047V4.55084L29.4678 11.7133C28.14 13.1388 25.9738 13.1388 24.646 11.7133L23.6247 10.6167L22.8399 11.4593C22.0174 12.3424 21.1359 12.7694 20.2113 12.7117C19.3405 12.6656 18.4912 12.1981 17.6795 11.3266L11.7773 4.98947C11.0409 4.19878 10.1002 3.7486 9.13258 3.65049C8.81543 4.30267 8.6488 5.02987 8.6488 5.78594C8.6488 7.03258 9.10033 8.2042 9.92277 9.08723L20.0877 20.0011C21.0337 21.0169 21.5552 22.3674 21.5552 23.8045C21.5552 25.2416 21.0337 26.5922 20.0877 27.608C19.0126 28.768 17.4914 29.3336 15.9916 29.1489C15.8411 29.3683 15.6745 29.576 15.4971 29.7665C14.5241 30.8111 13.2394 31.3363 11.9601 31.3363H11.9654ZM3.26801 18.0388C2.75734 18.0388 2.25205 18.2466 1.85965 18.6564C1.47799 19.0604 1.26835 19.6029 1.26835 20.18C1.26835 20.7572 1.47262 21.2997 1.85427 21.7037L8.89606 29.2644C10.5893 31.0824 13.3415 31.0824 15.0348 29.2644C15.1154 29.1778 15.1907 29.0912 15.2606 28.9989C14.4166 28.7565 13.6426 28.2832 13.0083 27.6022L4.68712 18.6679C4.30009 18.2524 3.78405 18.0388 3.27338 18.0388H3.26801ZM16.3948 28.4621C17.5989 28.5198 18.7653 28.0177 19.6254 27.1001C21.3186 25.282 21.3186 22.3213 19.6254 20.4975L9.46048 9.58358C8.51441 8.5678 7.993 7.21727 7.993 5.78017C7.993 5.02987 8.13813 4.30267 8.41228 3.63317C7.4017 3.7082 6.41262 4.15838 5.64394 4.9837C3.95068 6.80172 3.95068 9.7625 5.64394 11.5805L15.5024 22.1654C16.4485 23.1812 16.9699 24.526 16.9699 25.9631C16.9699 26.8461 16.771 27.7003 16.4001 28.4621H16.3948ZM36.7945 3.95638C36.7945 4.03141 36.7998 4.11221 36.7998 4.18724V19.2104C36.7998 20.5725 37.8319 21.6749 39.0951 21.6749C40.3584 21.6749 41.3904 20.5667 41.3904 19.2104V6.67475C41.3904 5.34731 40.6809 4.21032 39.5413 3.70243C38.6114 3.28688 37.6008 3.39077 36.7891 3.95638H36.7945ZM24.0977 10.1146L25.1191 11.2111C26.1565 12.325 27.968 12.325 29.0055 11.2111L35.8161 3.89866C35.9075 3.80055 35.9989 3.71397 36.0957 3.6274C35.929 2.68088 35.3431 1.89018 34.4777 1.50926C33.451 1.05332 32.3221 1.28995 31.5373 2.13836L24.1031 10.1146H24.0977ZM9.53036 2.981C10.5302 3.15414 11.487 3.65626 12.2557 4.48158L18.1579 10.8187C18.8513 11.5632 19.5555 11.9614 20.2543 12.0018C20.9854 12.0365 21.6949 11.6902 22.3776 10.9572L23.1624 10.1146L16.0669 2.49042C14.379 0.67817 11.6322 0.672398 9.9389 2.47888C9.78838 2.63471 9.654 2.80208 9.53036 2.981Z" fill="#8E8E93"/>
<path d="M39.1005 30.9729C37.3589 30.9729 35.9398 29.4492 35.9398 27.5792C35.9398 25.7093 37.3589 24.1856 39.1005 24.1856C40.8421 24.1856 42.2612 25.7093 42.2612 27.5792C42.2612 29.4492 40.8421 30.9729 39.1005 30.9729ZM39.1005 24.8897C37.719 24.8897 36.6009 26.096 36.6009 27.5735C36.6009 29.051 37.7244 30.2572 39.1005 30.2572C40.4766 30.2572 41.6001 29.051 41.6001 27.5735C41.6001 26.096 40.4766 24.8897 39.1005 24.8897Z" fill="#8E8E93"/>
</g>
<defs>
<clipPath id="clip0_17_429">
<rect width="150.786" height="30.9179" fill="white" transform="translate(0.607178 0.418579)"/>
</clipPath>
</defs>
</svg>
